<svg xmlns="http://www.w3.org/2000/svg" width="24" height="25" viewBox="0 0 24 25" fill="none">
<path d="M15.6005 10.1677C15.3446 10.0252 15.0157 10.0252 14.7232 10.1677L12.6762 11.3427L11.2872 12.0905L9.27676 13.2656C9.02089 13.408 8.69191 13.408 8.39948 13.2656L6.82768 12.3398C6.5718 12.1973 6.38903 11.9125 6.38903 11.592V9.81157C6.38903 9.52671 6.53525 9.24184 6.82768 9.0638L8.39948 8.17359C8.65535 8.03116 8.98433 8.03116 9.27676 8.17359L10.8486 9.09941C11.1044 9.24184 11.2872 9.52671 11.2872 9.84718V11.0223L12.6762 10.2389V9.02819C12.6762 8.74332 12.53 8.45846 12.2376 8.28042L9.31332 6.60682C9.05744 6.46439 8.72846 6.46439 8.43603 6.60682L5.43864 8.31602C5.14621 8.45846 5 8.74332 5 9.02819V12.3754C5 12.6602 5.14621 12.9451 5.43864 13.1231L8.39948 14.7967C8.65535 14.9392 8.98433 14.9392 9.27676 14.7967L11.2872 13.6573L12.6762 12.8739L14.6867 11.7344C14.9426 11.592 15.2715 11.592 15.564 11.7344L17.1358 12.6246C17.3916 12.7671 17.5744 13.0519 17.5744 13.3724V15.1528C17.5744 15.4377 17.4282 15.7226 17.1358 15.9006L15.6005 16.7908C15.3446 16.9332 15.0157 16.9332 14.7232 16.7908L13.1514 15.9006C12.8956 15.7582 12.7128 15.4733 12.7128 15.1528V14.0134L11.3238 14.7967V15.9718C11.3238 16.2567 11.47 16.5415 11.7624 16.7196L14.7232 18.3932C14.9791 18.5356 15.3081 18.5356 15.6005 18.3932L18.5614 16.7196C18.8172 16.5772 19 16.2923 19 15.9718V12.589C19 12.3042 18.8538 12.0193 18.5614 11.8412L15.6005 10.1677Z" fill="#8247E5"/>
</svg>